<svg width="30" height="30" viewBox="0 0 30 30" fill="none" xmlns="http://www.w3.org/2000/svg">
<path d="M10.7699 25C10.2141 25 9.73869 24.8021 9.34369 24.4063C8.94869 24.0104 8.75077 23.5358 8.74994 22.9825V20H6.48994C5.93494 20 5.45994 19.8021 5.06494 19.4063C4.66994 19.0104 4.47202 18.5354 4.47119 17.9813V13.2688C4.47119 12.5604 4.71161 11.9671 5.19244 11.4888C5.67327 11.0088 6.26619 10.7688 6.97119 10.7688H23.0287C23.737 10.7688 24.3308 11.0088 24.8099 11.4888C25.2891 11.9688 25.5287 12.5621 25.5287 13.2688V17.9813C25.5287 18.5363 25.3312 19.0113 24.9362 19.4063C24.5412 19.8013 24.0658 19.9992 23.5099 20H21.2499V22.9813C21.2499 23.5363 21.052 24.0113 20.6562 24.4063C20.2604 24.8013 19.7854 24.9992 19.2312 25H10.7699ZM6.48994 18.75H8.74994C8.78244 18.2225 8.99161 17.77 9.37744 17.3925C9.76327 17.0158 10.2274 16.8275 10.7699 16.8275H19.2312C19.7729 16.8275 20.2366 17.0163 20.6224 17.3938C21.0083 17.7704 21.2174 18.2225 21.2499 18.75H23.5099C23.7341 18.75 23.9183 18.6779 24.0624 18.5338C24.2066 18.3896 24.2787 18.2054 24.2787 17.9813V13.2688C24.2787 12.9154 24.1591 12.6188 23.9199 12.3788C23.6808 12.1388 23.3837 12.0188 23.0287 12.0188H6.97119C6.61703 12.0188 6.32036 12.1388 6.08119 12.3788C5.84202 12.6188 5.72203 12.9159 5.72119 13.27V17.9813C5.72119 18.2054 5.79327 18.3896 5.93744 18.5338C6.08161 18.6779 6.26577 18.75 6.48994 18.75ZM19.9999 10.77V7.78752C19.9999 7.56252 19.9279 7.37835 19.7837 7.23502C19.6395 7.09085 19.4554 7.01877 19.2312 7.01877H10.7687C10.5445 7.01877 10.3604 7.09085 10.2162 7.23502C10.072 7.37918 9.99994 7.56335 9.99994 7.78752V10.7688H8.74994V7.78752C8.74994 7.23252 8.94786 6.7571 9.34369 6.36127C9.73869 5.96543 10.2137 5.76752 10.7687 5.76752H19.2312C19.7862 5.76752 20.2612 5.96543 20.6562 6.36127C21.052 6.7571 21.2499 7.2321 21.2499 7.78627V10.7688L19.9999 10.77ZM22.0199 15.145C22.3741 15.145 22.6708 15.025 22.9099 14.785C23.1491 14.545 23.2691 14.2484 23.2699 13.895C23.2708 13.5417 23.1508 13.2446 22.9099 13.0038C22.6691 12.7629 22.3724 12.6429 22.0199 12.6438C21.6674 12.6446 21.3704 12.7646 21.1287 13.0038C20.887 13.2429 20.7674 13.54 20.7699 13.895C20.7724 14.25 20.892 14.5467 21.1287 14.785C21.3654 15.0234 21.6624 15.1434 22.0199 15.145ZM19.9999 22.98V18.8463C19.9999 18.6213 19.9279 18.4367 19.7837 18.2925C19.6395 18.1484 19.4554 18.0763 19.2312 18.0763H10.7687C10.5445 18.0763 10.3604 18.1484 10.2162 18.2925C10.072 18.4375 9.99994 18.6221 9.99994 18.8463V22.9813C9.99994 23.2054 10.072 23.3896 10.2162 23.5338C10.3604 23.6779 10.5449 23.75 10.7699 23.75H19.2312C19.4554 23.75 19.6395 23.6779 19.7837 23.5338C19.9279 23.3896 19.9999 23.205 19.9999 22.98ZM6.48994 12.02H5.72119H24.2787H6.48994Z" fill="black"/>
</svg>
